# xmcd CD database file
#
# Track frame offsets:
#	150
#	26038
#	43255
#	67725
#	92279
#	113111
#	135622
#	164723
#	184969
#	203908
#	231036
#	256201
#
# Disc length: 3705 seconds
#
# Revision: 0
# Processed by: cddbd v1.5.2PL0 Copyright (c) Steve Scherf et al.
# Submitted via: CDex 1.51
#
DISCID=a20e770c
DTITLE=U-Nam - Back from the 80's
DYEAR=2007
DGENRE=Jazz
TTITLE0=Street Life
TTITLE1=Breezin' M.A.
TTITLE2=Keep the Faith
TTITLE3=Slowdown
TTITLE4=Turn Your Love Around
TTITLE5=Mister GB
TTITLE6=Just a Kiss and Goodbye
TTITLE7=From Overseas
TTITLE8=I Can't Help It
TTITLE9=Just Like Real Lovers Do
TTITLE10=Love Will Find a Way
TTITLE11=Where Is the Love
EXTD=YEAR: 2007
EXTT0=
EXTT1=
EXTT2=
EXTT3=
EXTT4=
EXTT5=
EXTT6=
EXTT7=
EXTT8=
EXTT9=
EXTT10=
EXTT11=
PLAYORDER=
